<svg id="Group_2" data-name="Group 2" xmlns="http://www.w3.org/2000/svg" width="108" height="84.164" viewBox="0 0 108 84.164" >
		  <defs>
    <linearGradient id="linear-gradient" x1="0.425" y1="0.072" x2="1.437" y2="1.065" gradientUnits="objectBoundingBox">
      <stop offset="0" stop-color="#c898ff"/>
      <stop offset="1" stop-color="#72a1ff"/>
    </linearGradient>
    <clipPath id="clip-path">
      <rect id="Rectangle_7" data-name="Rectangle 7" width="123.236" height="111.683" fill="url(#linear-gradient)"/>
    </clipPath>
  </defs>
  <path id="Path_2" data-name="Path 2" d="M1137.889,345.974h-6.421V331.987a4.037,4.037,0,0,0-4.036-4.03h-6.111a4.037,4.037,0,0,0-4.036,4.03v13.987h-5.01V320.944a4.035,4.035,0,0,0-4.03-4.031h-6.116a4.036,4.036,0,0,0-4.03,4.031v25.031h-5.01v-9a2.111,2.111,0,1,0-4.221,0v48.968h-5.734V310.221h5.735l.04,7.821a2.111,2.111,0,0,0,2.111,2.1h.011a2.111,2.111,0,0,0,2.1-2.122l-.042-8a4.046,4.046,0,0,0-4.03-4.019h-6.116a4.034,4.034,0,0,0-4.03,4.03v35.944H1073.9V320.944a4.035,4.035,0,0,0-4.03-4.031h-6.111a4.038,4.038,0,0,0-4.036,4.031v25.031h-5.011V331.987a4.034,4.034,0,0,0-4.03-4.03h-6.116a4.034,4.034,0,0,0-4.03,4.03v13.987h-6.421a2.111,2.111,0,1,0,0,4.222h6.421v13.98a4.035,4.035,0,0,0,4.03,4.03h6.116a4.034,4.034,0,0,0,4.03-4.03V350.2h5.01v25.025a4.038,4.038,0,0,0,4.037,4.03h6.111a4.035,4.035,0,0,0,4.03-4.03V350.2h5.016v35.938a4.034,4.034,0,0,0,4.03,4.03h6.116a4.034,4.034,0,0,0,4.03-4.03V350.2h5.01V375.22a4.036,4.036,0,0,0,4.03,4.031h6.116a4.035,4.035,0,0,0,4.03-4.031V350.2h5.01v13.981a4.037,4.037,0,0,0,4.036,4.03h6.111a4.037,4.037,0,0,0,4.036-4.03V350.2h6.421a2.111,2.111,0,1,0,0-4.221Zm-87.4,18.01h-5.734V332.179h5.734Zm19.186,11.044h-5.733V321.135h5.733Zm38.38,0h-5.734V321.135h5.734Zm19.193-11.044h-5.74V332.179h5.74Zm0,0" transform="translate(-1032 -306)" fill="url(#linear-gradient)"/>
  <path id="Path_3" data-name="Path 3" d="M1303.7,397.848a2.111,2.111,0,0,0-2.111,2.111V400a2.111,2.111,0,1,0,4.221,0v-.042a2.11,2.11,0,0,0-2.11-2.111Zm0,0" transform="translate(-1244.723 -378.474)" fill="url(#linear-gradient)"/>
</svg>
